<svg width="208" height="61" viewBox="0 0 208 61" fill="none" xmlns="http://www.w3.org/2000/svg">
<path d="M109.949 39.7194H107.442L107.103 37.8876H101.424L100.452 39.7194H97.9453L103.843 28.6123H107.892L109.949 39.7194ZM106.695 35.6822L105.793 30.8041H105.185L102.595 35.6822H106.697H106.695Z" fill="url(#paint0_linear_260_126)"/>
<path d="M121.369 30.8069L119.828 39.7173H117.41L117.636 38.4105H117.523C116.811 39.1958 115.908 39.7185 114.311 39.7185C110.544 39.7185 110.989 36.5614 111.213 35.2621L111.984 30.8057H114.386L113.616 35.2621C113.496 35.9549 113.055 37.6413 115.369 37.6413C117.455 37.6413 117.998 36.3112 118.208 35.1043L118.951 30.8069H121.369Z" fill="url(#paint1_linear_260_126)"/>
<path d="M124.608 36.0348L124.577 36.2135C124.353 37.5092 124.968 37.3218 127.299 37.1973L126.891 39.5555C126.891 39.5555 126.388 39.7207 123.969 39.7207C121.551 39.7207 121.895 37.7335 122.119 36.4379L122.736 32.8666H121.547L121.899 30.8313H123.089L123.534 28.2573H125.953L125.508 30.8313H128.401L128.048 32.8666H125.155L124.607 36.0348H124.608Z" fill="url(#paint2_linear_260_126)"/>
<path d="M138.55 35.1784C138.009 38.3059 135.497 39.7187 132.794 39.7187C130.092 39.7187 128.077 38.2615 128.609 35.1784C129.142 32.0953 131.663 30.6382 134.365 30.6382C137.067 30.6382 139.084 32.0916 138.55 35.1784ZM136.173 35.1784C136.457 33.5352 135.498 32.8448 133.984 32.8448C132.47 32.8448 131.276 33.508 130.987 35.1784C130.699 36.8488 131.663 37.512 133.177 37.512C134.69 37.512 135.894 36.7958 136.173 35.1784Z" fill="url(#paint3_linear_260_126)"/>
<path d="M146.358 28.6138L144.437 39.7184H142.022L143.246 32.6387H140.078C140.078 32.6387 140.076 32.6535 140.392 30.8179C143.481 30.8179 143.942 28.6138 143.942 28.6138H146.357H146.358Z" fill="url(#paint4_linear_260_126)"/>
<path d="M158.426 36.2648C157.949 39.0249 155.99 39.719 152.739 39.719C147.259 39.719 147.787 36.6839 147.972 35.6077H150.452C150.161 37.2867 151.594 37.5493 153.037 37.5493C154.866 37.5493 155.699 37.1277 155.848 36.266C155.979 35.5091 155.241 35.3784 153.119 35.0567C149.881 34.5673 148.507 33.8769 148.858 31.8441C149.129 30.2748 150.605 28.4614 154.233 28.4614C158.55 28.4614 158.993 30.8764 158.701 32.5702H156.164C156.297 31.7997 156.153 30.6533 153.855 30.6533C151.982 30.6533 151.44 31.3288 151.347 31.8651C151.245 32.4543 151.863 32.675 153.669 32.977C156.09 33.3814 158.861 33.7487 158.426 36.2635V36.2648Z" fill="url(#paint5_linear_260_126)"/>
<path d="M169.546 35.1784C169.005 38.3059 166.493 39.7187 163.79 39.7187C161.088 39.7187 159.073 38.2615 159.605 35.1784C160.135 32.1138 162.659 30.6382 165.361 30.6382C168.063 30.6382 170.08 32.0916 169.546 35.1784ZM167.169 35.1784C167.453 33.5352 166.494 32.8448 164.98 32.8448C163.466 32.8448 162.272 33.508 161.983 35.1784C161.694 36.85 162.659 37.512 164.173 37.512C165.686 37.512 166.89 36.7958 167.169 35.1784Z" fill="url(#paint6_linear_260_126)"/>
<path d="M180.822 30.8069L179.281 39.7173H176.864L177.089 38.4105H176.976C176.264 39.1958 175.361 39.7185 173.764 39.7185C169.997 39.7185 170.442 36.5614 170.666 35.2621L171.437 30.8057H173.84L173.069 35.2621C172.95 35.9549 172.508 37.6413 174.822 37.6413C176.908 37.6413 177.452 36.3112 177.661 35.1043L178.405 30.8069H180.822Z" fill="url(#paint7_linear_260_126)"/>
<path d="M188.866 31.0325L188.087 33.3131C187.873 33.2502 187.286 33.1146 186.522 33.1146C184.729 33.1146 183.953 34.5138 183.743 35.7207L183.051 39.7185H180.633L182.174 30.8057H184.592L184.366 32.1149H184.516C185.159 31.2618 185.788 30.8057 187.321 30.8057C187.97 30.8057 188.463 30.9388 188.865 31.0313L188.866 31.0325Z" fill="url(#paint8_linear_260_126)"/>
<path d="M197.064 36.3752C196.511 38.5239 194.405 39.7196 191.853 39.7196C189.302 39.7196 187.362 38.1959 187.87 35.2546C188.37 32.3675 190.771 30.7896 193.398 30.7896C196.025 30.7896 197.62 32.0198 197.453 34.134H195.087C195.009 33.4671 194.5 32.9617 193.023 32.9617C191.46 32.9617 190.501 33.7358 190.238 35.2546C189.964 36.8411 190.667 37.5475 192.231 37.5475C193.794 37.5475 194.41 36.9977 194.694 36.3752H197.065H197.064Z" fill="url(#paint9_linear_260_126)"/>
<path d="M207.138 35.8229H200.029C199.988 37.0137 200.598 37.6042 202.163 37.6042C203.606 37.6042 204.39 37.2036 204.714 36.618H207.055C206.477 38.5312 204.724 39.7184 201.798 39.7184C198.871 39.7184 197.273 38.1824 197.786 35.2176C198.289 32.3071 200.344 30.7168 203.355 30.7168C204.616 30.7168 205.564 31.0324 206.227 31.5575V31.5538C207.749 32.7151 207.577 34.6012 207.228 35.8216H207.139L207.138 35.8229ZM200.397 34.2265H205.101C205.019 33.5583 204.708 32.8322 202.987 32.8322C201.651 32.8322 200.831 33.3241 200.397 34.2265Z" fill="url(#paint10_linear_260_126)"/>
<path d="M103.2 45.2108H102.499L102.411 44.698H100.821L100.541 45.2108H99.8398L101.535 42.1006H102.669L103.2 45.2108ZM102.307 44.0804L102.074 42.7145H101.903L101.159 44.0804H102.307Z" fill="url(#paint11_linear_260_126)"/>
<path d="M105.692 42.0991H106.396L106.082 43.7769C106.003 44.201 105.813 45.2118 104.407 45.2118C103.002 45.2118 103.181 44.2552 103.271 43.7744L103.584 42.0991H104.261L103.961 43.6968C103.874 44.164 103.814 44.5918 104.522 44.5918C105.23 44.5918 105.328 44.0358 105.391 43.6968C105.454 43.3578 105.691 42.0991 105.691 42.0991H105.692Z" fill="url(#paint12_linear_260_126)"/>
<path d="M106.651 42.0991H109.68L109.564 42.7167H108.388L107.921 45.2118H107.244L107.711 42.7167H106.535L106.651 42.0991Z" fill="url(#paint13_linear_260_126)"/>
<path d="M112.561 43.63C112.369 44.6531 111.572 45.2116 110.667 45.2116C109.762 45.2116 109.17 44.6716 109.365 43.63C109.56 42.5883 110.354 42.0483 111.259 42.0483C112.164 42.0483 112.753 42.6068 112.561 43.63ZM111.897 43.63C112.011 43.0222 111.668 42.7387 111.129 42.7387C110.591 42.7387 110.143 43.0111 110.027 43.63C109.911 44.2488 110.257 44.5212 110.795 44.5212C111.334 44.5212 111.785 44.2278 111.897 43.63Z" fill="url(#paint14_linear_260_126)"/>
<path d="M116.369 44.0161L116.739 45.2118H116.005L115.696 44.1714C115.628 44.1751 115.57 44.1751 115.528 44.1751H114.812L114.618 45.2118H113.941L114.524 42.0991H115.201V42.1016C115.366 42.1016 115.858 42.0991 116.043 42.0991C116.417 42.0991 117.248 42.0979 117.053 43.1383C116.952 43.6758 116.677 43.8706 116.37 44.0161H116.369ZM116.424 43.1371C116.506 42.7056 116.096 42.7056 115.887 42.7056H115.087L114.925 43.571H115.714C115.906 43.571 116.343 43.5735 116.424 43.1383V43.1371Z" fill="url(#paint15_linear_260_126)"/>
<path d="M120.043 42.0991L119.929 42.7106H118.048L117.928 43.3491H119.809L119.695 43.9606H117.813L117.695 44.5918H119.576L119.46 45.2118H117.579H116.902L117.485 42.0991H120.043Z" fill="url(#paint16_linear_260_126)"/>
<path d="M122.806 43.2209C122.589 44.3822 121.563 44.3403 121.267 44.3403H120.55L120.388 45.2118H119.711L120.294 42.0991H120.971V42.1016C121.136 42.1016 121.505 42.0991 121.69 42.0991C122.064 42.0991 123.017 42.1016 122.808 43.2209H122.806ZM122.173 43.2197C122.274 42.6822 121.839 42.6847 121.613 42.6847H120.861L120.66 43.7572H121.402C121.582 43.7572 122.068 43.7831 122.174 43.2209L122.173 43.2197Z" fill="url(#paint17_linear_260_126)"/>
<path d="M125.4 45.2108H124.698L124.611 44.698H123.02L122.741 45.2108H122.039L123.734 42.1006H124.868L125.4 45.2108ZM124.505 44.0804L124.272 42.7145H124.101L123.357 44.0804H124.505Z" fill="url(#paint18_linear_260_126)"/>
<path d="M125.547 45.2118L126.13 42.0991H126.807L126.224 45.2118H125.547Z" fill="url(#paint19_linear_260_126)"/>
<path d="M128.884 44.0161L129.254 45.2118H128.521L128.211 44.1714C128.143 44.1751 128.086 44.1751 128.044 44.1751H127.327L127.134 45.2118H126.457L127.04 42.0991H127.717V42.1016C127.882 42.1016 128.374 42.0991 128.559 42.0991C128.932 42.0991 129.763 42.0979 129.569 43.1383C129.467 43.6758 129.193 43.8706 128.886 44.0161H128.884ZM128.94 43.1371C129.021 42.7056 128.612 42.7056 128.402 42.7056H127.602L127.441 43.571H128.23C128.422 43.571 128.858 43.5735 128.94 43.1383V43.1371Z" fill="url(#paint20_linear_260_126)"/>
<path d="M134.095 44.2443C133.95 45.0172 133.399 45.2108 132.488 45.2108C130.955 45.2108 131.114 44.3614 131.17 44.0594H131.864C131.777 44.529 132.176 44.603 132.581 44.603C133.092 44.603 133.328 44.4847 133.372 44.2443C133.412 44.0322 133.206 43.9953 132.613 43.9053C131.708 43.7684 131.326 43.5749 131.433 43.0054C131.516 42.5653 131.936 42.0586 132.952 42.0586C134.16 42.0586 134.275 42.7354 134.186 43.2088H133.476C133.516 42.993 133.481 42.6725 132.837 42.6725C132.313 42.6725 132.158 42.8624 132.131 43.0115C132.1 43.1767 132.271 43.2383 132.777 43.3234C133.453 43.4368 134.228 43.5391 134.096 44.243L134.095 44.2443Z" fill="url(#paint21_linear_260_126)"/>
<path d="M136.941 42.0991H137.617L137.034 45.2118H136.357L136.592 43.9618H134.966L134.731 45.2118H134.055L134.638 42.0991H135.315L135.08 43.3491H136.706L136.941 42.0991Z" fill="url(#paint22_linear_260_126)"/>
<path d="M140.736 43.63C140.545 44.6531 139.748 45.2116 138.843 45.2116C137.938 45.2116 137.346 44.6716 137.541 43.63C137.736 42.5883 138.53 42.0483 139.435 42.0483C140.339 42.0483 140.929 42.6068 140.736 43.63ZM140.073 43.63C140.187 43.0222 139.844 42.7387 139.305 42.7387C138.766 42.7387 138.319 43.0111 138.203 43.63C138.087 44.2488 138.432 44.5212 138.971 44.5212C139.51 44.5212 139.961 44.2278 140.073 43.63Z" fill="url(#paint23_linear_260_126)"/>
<path d="M143.74 43.2209C143.523 44.3822 142.496 44.3403 142.2 44.3403H141.484L141.321 45.2118H140.645L141.228 42.0991H141.904V42.1016C142.07 42.1016 142.438 42.0991 142.623 42.0991C142.998 42.0991 143.951 42.1016 143.741 43.2209H143.74ZM143.106 43.2197C143.207 42.6822 142.772 42.6847 142.547 42.6847H141.795L141.594 43.7572H142.336C142.516 43.7572 143.002 43.7831 143.108 43.2209L143.106 43.2197Z" fill="url(#paint24_linear_260_126)"/>
<path d="M149.273 42.0991L148.689 45.2118H148.013L148.447 42.8955H148.38L147.353 45.2118H146.381L146.22 42.8955H146.154L145.72 45.2118H145.043L145.626 42.0991H146.623V42.1016H146.787L146.941 44.5918H147.003L148.089 42.1016H148.299V42.0991H149.271H149.273Z" fill="url(#paint25_linear_260_126)"/>
<path d="M152.196 45.2108H151.495L151.407 44.698H149.817L149.537 45.2108H148.836L150.531 42.1006H151.665L152.196 45.2108ZM151.301 44.0804L151.068 42.7145H150.898L150.154 44.0804H151.301Z" fill="url(#paint26_linear_260_126)"/>
<path d="M155.301 42.0989H155.978L155.395 45.2116H154.42L153.473 42.9778H153.395L152.978 45.2116H152.301L152.884 42.0989H153.799V42.1014H153.858L154.802 44.3314H154.882L155.3 42.0977L155.301 42.0989Z" fill="url(#paint27_linear_260_126)"/>
<path d="M158.88 45.2108H158.179L158.091 44.698H156.501L156.221 45.2108H155.52L157.215 42.1006H158.349L158.88 45.2108ZM157.985 44.0804L157.752 42.7145H157.582L156.837 44.0804H157.985Z" fill="url(#paint28_linear_260_126)"/>
<path d="M162.194 43.4046L161.861 45.186H161.184L161.275 44.7003H161.238C161.077 44.9813 160.737 45.2106 160.279 45.2106C159.385 45.2106 158.763 44.6707 158.958 43.629C159.149 42.6058 159.978 42.0474 160.871 42.0474C161.678 42.0474 162.224 42.4986 162.232 43.094H161.492C161.408 42.8536 161.168 42.7377 160.741 42.7377C160.209 42.7377 159.748 43.0101 159.632 43.629C159.516 44.2478 159.875 44.5203 160.407 44.5203C160.94 44.5203 161.22 44.3378 161.365 44.0395H160.476L160.595 43.4046H162.194Z" fill="url(#paint29_linear_260_126)"/>
<path d="M165.243 42.0991L165.128 42.7106H163.247L163.127 43.3491H165.008L164.894 43.9606H163.013L162.894 44.5918H164.775L164.66 45.2118H162.778H162.102L162.685 42.0991H165.243Z" fill="url(#paint30_linear_260_126)"/>
<path d="M169.136 42.0991L168.553 45.2118H167.876L168.31 42.8955H168.243L167.216 45.2118H166.244L166.084 42.8955H166.017L165.583 45.2118H164.906L165.489 42.0991H166.487V42.1016H166.651L166.805 44.5918H166.866L167.952 42.1016H168.162V42.0991H169.135H169.136Z" fill="url(#paint31_linear_260_126)"/>
<path d="M171.957 42.0991L171.843 42.7106H169.962L169.842 43.3491H171.723L171.609 43.9606H169.727L169.609 44.5918H171.49L171.374 45.2118H169.493H168.816L169.4 42.0991H171.957Z" fill="url(#paint32_linear_260_126)"/>
<path d="M174.629 42.0989H175.306L174.723 45.2116H173.748L172.801 42.9778H172.724L172.306 45.2116H171.629L172.212 42.0989H173.127V42.1014H173.186L174.13 44.3314H174.21L174.628 42.0977L174.629 42.0989Z" fill="url(#paint33_linear_260_126)"/>
<path d="M175.557 42.0991H178.586L178.47 42.7167H177.294L176.827 45.2118H176.15L176.617 42.7167H175.441L175.557 42.0991Z" fill="url(#paint34_linear_260_126)"/>
<path d="M182.82 44.2443C182.676 45.0172 182.125 45.2108 181.215 45.2108C179.681 45.2108 179.84 44.3614 179.897 44.0594H180.591C180.504 44.529 180.903 44.603 181.307 44.603C181.819 44.603 182.054 44.4847 182.099 44.2443C182.138 44.0322 181.932 43.9953 181.339 43.9053C180.434 43.7684 180.052 43.5749 180.16 43.0054C180.242 42.5653 180.663 42.0586 181.678 42.0586C182.886 42.0586 183.001 42.7354 182.912 43.2088H182.202C182.243 42.993 182.207 42.6725 181.564 42.6725C181.04 42.6725 180.884 42.8624 180.857 43.0115C180.826 43.1767 180.998 43.2383 181.503 43.3234C182.18 43.4368 182.954 43.5391 182.822 44.243L182.82 44.2443Z" fill="url(#paint35_linear_260_126)"/>
<path d="M186.244 43.63C186.053 44.6531 185.255 45.2116 184.351 45.2116C183.446 45.2116 182.854 44.6716 183.049 43.63C183.24 42.6068 184.038 42.0483 184.944 42.0483C185.85 42.0483 186.438 42.6068 186.245 43.63H186.244ZM185.581 43.63C185.694 43.0222 185.353 42.7387 184.813 42.7387C184.273 42.7387 183.827 43.0111 183.711 43.63C183.595 44.2488 183.94 44.5212 184.479 44.5212C185.018 44.5212 185.469 44.2278 185.581 43.63Z" fill="url(#paint36_linear_260_126)"/>
<path d="M189.401 42.0989L189.287 42.7103H187.313L187.194 43.3489H189.075L188.96 43.9604H187.079L186.845 45.2104H186.168L186.751 42.0977H189.401V42.0989Z" fill="url(#paint37_linear_260_126)"/>
<path d="M189.643 42.0991H192.672L192.556 42.7167H191.38L190.913 45.2118H190.236L190.703 42.7167H189.527L189.643 42.0991Z" fill="url(#paint38_linear_260_126)"/>
<path d="M196.888 42.0991H197.631L196.321 45.2118H195.17L195.075 43.1531H195.017L194.151 45.2118H192.981L192.836 42.0991H193.579L193.688 44.593H193.765L194.823 42.0991H195.666L195.791 44.593H195.849L196.89 42.0991H196.888Z" fill="url(#paint39_linear_260_126)"/>
<path d="M199.888 45.2113H199.186L199.099 44.6985H197.509L197.229 45.2113H196.527L198.222 42.1011H199.357L199.888 45.2113ZM198.993 44.0809L198.76 42.715H198.59L197.845 44.0809H198.993Z" fill="url(#paint40_linear_260_126)"/>
<path d="M202.439 44.0161L202.809 45.2118H202.075L201.766 44.1714C201.698 44.1751 201.64 44.1751 201.598 44.1751H200.882L200.689 45.2118H200.012L200.595 42.0991H201.272V42.1016C201.437 42.1016 201.929 42.0991 202.114 42.0991C202.488 42.0991 203.318 42.0979 203.123 43.1383C203.022 43.6758 202.747 43.8706 202.44 44.0161H202.439ZM202.494 43.1371C202.576 42.7056 202.168 42.7056 201.957 42.7056H201.157L200.995 43.571H201.784C201.977 43.571 202.413 43.5735 202.494 43.1383V43.1371Z" fill="url(#paint41_linear_260_126)"/>
<path d="M206.114 42.0991L205.999 42.7106H204.118L203.998 43.3491H205.879L205.765 43.9606H203.884L203.765 44.5918H205.647L205.531 45.2118H203.649H202.973L203.556 42.0991H206.114Z" fill="url(#paint42_linear_260_126)"/>
<path d="M76.5286 15.5506L71.5084 15.8278C62.879 9.65217 52.4448 5.18935 41.4461 7.17494C13.2978 12.2563 12.6456 32.5425 12.6456 32.5425L5.57429 38.6875C4.85212 37.4518 4.75 32.3718 4.75 32.3718L7.59488 31.2952C8.54463 30.9363 9.26096 30.1382 9.51773 29.1564C9.86641 27.8229 9.30327 26.4195 8.1303 25.6973L6.25998 24.5448L9.72781 17.9884L12.0475 18.5384C13.1212 18.7937 14.249 18.4655 15.0178 17.6733L16.999 15.6352C17.9284 14.6796 18.1501 13.2411 17.5549 12.0492L16.5249 9.98918L22.9791 5.4578L25.1923 7.03488C26.1158 7.69285 27.3209 7.80081 28.3465 7.31791L30.9535 6.0895C32.0025 5.59493 32.694 4.56056 32.748 3.40219L32.8312 1.6121L40.5211 0L41.6109 1.90242C42.1857 2.90615 43.2682 3.5116 44.4252 3.47659L47.5283 3.38176C48.6137 3.34821 49.6043 2.75589 50.147 1.81635L51.196 0L58.6452 1.40639L58.8086 3.34529C58.899 4.42342 59.541 5.37901 60.5038 5.87213L63.2233 7.26247C64.2328 7.77893 65.4437 7.7089 66.3876 7.08011L68.6694 5.55846L74.8989 9.78056L74.4613 10.6092C73.7668 11.9252 74.0951 13.5489 75.2447 14.4928L76.53 15.5476L76.5286 15.5506Z" fill="url(#paint43_linear_260_126)"/>
<path d="M68.2043 15.5504H66.2961C60.9069 12.4152 53.9756 10.5303 46.414 10.5303C35.0214 10.5303 17.9754 19.7769 15.593 29.9032L14.3369 30.8296C14.331 30.6691 14.3281 30.5087 14.3281 30.3467C14.3281 21.4547 29.1565 8.61621 45.4278 8.61621C54.4234 8.61621 62.5262 11.2846 68.2043 15.5504Z" fill="#2B5277"/>
<path d="M41.268 26.5015H38.7528L39.9375 22.383L38.1868 17.748H28.9694L8.57812 41.2278L11.7192 42.5671H16.6634L20.6273 37.7264H35.8686L37.4646 42.5671H39.6792L42.6656 31.1365L41.268 26.5015ZM25.3133 32.1665L31.8011 24.2358L34.5818 32.1665H25.3133Z" fill="url(#paint44_linear_260_126)"/>
<path d="M41.2656 24.5962H45.8568L41.5837 42.5671H49.205L55.0757 17.748C55.0757 17.748 47.5069 21.0948 42.2023 20.6323L41.2671 24.5976L41.2656 24.5962Z" fill="url(#paint45_linear_260_126)"/>
<path d="M87.1478 18.0054L82.7711 23.9271H64.132C64.132 23.9271 62.1756 24.0307 61.9699 25.421C61.7642 26.8114 61.5584 27.481 64.132 27.5831C66.7055 27.6853 77.0565 27.5831 77.0565 27.5831C77.0565 27.5831 82.9272 27.6867 82.0518 32.167C81.1765 36.6459 78.3447 41.7959 70.9291 42.1037C63.5134 42.4115 63.1545 42.5676 63.1545 42.5676C63.1545 42.5676 58.6742 38.757 52.2389 42.5676H51.3125L52.9086 36.5438H70.7759C70.7759 36.5438 73.968 36.9552 74.3283 34.4327C74.6887 31.9103 72.1137 32.631 72.1137 32.631H58.3138C58.3138 32.631 53.6803 32.3217 54.401 29.2842C55.1217 26.2468 56.5631 20.6343 56.5631 20.6343C56.5631 20.6343 56.8199 18.0083 62.1756 18.0083H87.1493L87.1478 18.0054Z" fill="url(#paint46_linear_260_126)"/>
<path d="M48.7627 57.1911C48.1164 57.4012 29.0557 61.7779 13.8655 56.5579C9.17945 55.1165 4.27459 52.8523 1.62228 48.5149C0.0948009 46.0319 -0.322447 42.974 0.237776 40.1525C0.627306 38.1027 1.46764 36.0996 2.8609 34.5342C1.9768 37.0173 1.1992 39.6068 1.32029 42.2562C1.69231 50.0205 9.95268 53.2345 16.4653 54.746C30.5569 58.4224 45.9878 57.1298 48.7627 57.1911Z" fill="url(#paint47_linear_260_126)"/>
<path d="M66.3398 58.5924C66.3574 58.5662 66.3734 58.5414 66.3895 58.5136C67.7696 56.3151 68.2116 51.5254 68.2116 51.5254C93.8214 41.9579 85.011 25.4269 84.6492 24.7704C84.6419 24.7573 84.6375 24.75 84.6375 24.75C84.6375 24.75 104.967 41.9448 66.3398 58.5924Z" fill="url(#paint48_linear_260_126)"/>
<path d="M66.3357 58.5924C65.9987 58.7369 65.6558 58.8827 65.3086 59.0272C65.4224 58.9761 65.8017 58.8025 66.3853 58.5136C71.9175 55.7782 95.759 42.664 84.645 24.7704C84.6377 24.7573 84.6334 24.75 84.6334 24.75C84.6334 24.75 104.963 41.9448 66.3357 58.5924Z" fill="url(#paint49_linear_260_126)"/>
<path d="M84.6317 24.75C84.6317 24.75 91.016 38.8241 75.7747 45.6562L80.2711 41.6719C80.2711 41.6719 72.2733 45.9305 69.2344 45.1412C69.2344 45.1412 88.6817 44.3855 84.6303 24.75H84.6317Z" fill="url(#paint50_linear_260_126)"/>
<path d="M59.5466 54.7295L57.2882 51.6949L57.6749 47.8507C59.8603 47.4305 62.0487 47.0118 64.2341 46.5931C64.4646 46.5479 64.6937 46.5041 64.9242 46.4603C64.5843 45.9541 62.463 42.9123 58.6056 42.4323C55.005 41.9844 51.3446 43.9481 49.413 47.4072C-1.22294 51.0749 2.77302 34.8868 2.86347 34.5396C2.30179 35.8453 1.93414 37.0708 1.74302 38.2204C-1.28714 56.3882 39.3538 55.8426 48.1277 55.5158C49.1854 55.4764 49.7807 55.4399 49.7807 55.4399C50.214 56.2248 51.4292 58.1754 53.8467 59.2769C56.8593 60.6483 60.5475 60.1595 63.1268 58.0368C65.7295 55.8966 66.2022 52.916 66.3014 52.1443L59.5466 54.7295ZM40.1839 52.7716C38.7965 52.7833 36.8182 52.7701 35.4527 52.6957C34.093 52.6636 32.103 52.5367 30.7258 52.4112C29.3807 52.3325 27.3674 52.0596 26.0135 51.8992C23.7405 51.5476 21.237 51.1303 19.0297 50.5132C17.1156 50.0113 15.2278 49.3665 13.4304 48.5364C12.3668 48.0345 11.2887 47.467 10.3769 46.72C11.7672 47.4363 13.2714 47.8696 14.7638 48.3015C16.6371 48.8004 18.5366 49.1768 20.4463 49.5065C21.3333 49.651 22.426 49.794 23.3189 49.9282C23.6793 49.969 25.7976 50.2054 26.2075 50.252C27.5483 50.344 29.5222 50.5234 30.8498 50.5613C36.2551 50.8414 41.7581 50.6839 47.1605 50.5001L47.2699 52.5396C44.921 52.6534 42.5401 52.7906 40.1839 52.7716Z" fill="url(#paint51_linear_260_126)"/>
<defs>
<linearGradient id="paint0_linear_260_126" x1="103.948" y1="28.6986" x2="103.948" y2="39.4877" gradientUnits="userSpaceOnUse">
<stop stop-color="#2A5580"/>
<stop offset="1" stop-color="#08192D"/>
</linearGradient>
<linearGradient id="paint1_linear_260_126" x1="116.221" y1="28.6989" x2="116.221" y2="39.488" gradientUnits="userSpaceOnUse">
<stop stop-color="#2A5580"/>
<stop offset="1" stop-color="#08192D"/>
</linearGradient>
<linearGradient id="paint2_linear_260_126" x1="124.974" y1="28.6987" x2="124.974" y2="39.4877" gradientUnits="userSpaceOnUse">
<stop stop-color="#2A5580"/>
<stop offset="1" stop-color="#08192D"/>
</linearGradient>
<linearGradient id="paint3_linear_260_126" x1="133.581" y1="28.6978" x2="133.581" y2="39.4869" gradientUnits="userSpaceOnUse">
<stop stop-color="#2A5580"/>
<stop offset="1" stop-color="#08192D"/>
</linearGradient>
<linearGradient id="paint4_linear_260_126" x1="143.218" y1="28.6988" x2="143.218" y2="39.4879" gradientUnits="userSpaceOnUse">
<stop stop-color="#F53A31"/>
<stop offset="1" stop-color="#8F0304"/>
</linearGradient>
<linearGradient id="paint5_linear_260_126" x1="153.32" y1="28.6981" x2="153.32" y2="39.4872" gradientUnits="userSpaceOnUse">
<stop stop-color="#2A5580"/>
<stop offset="1" stop-color="#08192D"/>
</linearGradient>
<linearGradient id="paint6_linear_260_126" x1="164.576" y1="28.6978" x2="164.576" y2="39.4869" gradientUnits="userSpaceOnUse">
<stop stop-color="#2A5580"/>
<stop offset="1" stop-color="#08192D"/>
</linearGradient>
<linearGradient id="paint7_linear_260_126" x1="175.673" y1="28.6989" x2="175.673" y2="39.488" gradientUnits="userSpaceOnUse">
<stop stop-color="#2A5580"/>
<stop offset="1" stop-color="#08192D"/>
</linearGradient>
<linearGradient id="paint8_linear_260_126" x1="184.749" y1="28.6989" x2="184.749" y2="39.488" gradientUnits="userSpaceOnUse">
<stop stop-color="#2A5580"/>
<stop offset="1" stop-color="#08192D"/>
</linearGradient>
<linearGradient id="paint9_linear_260_126" x1="192.625" y1="28.6988" x2="192.625" y2="39.4879" gradientUnits="userSpaceOnUse">
<stop stop-color="#2A5580"/>
<stop offset="1" stop-color="#08192D"/>
</linearGradient>
<linearGradient id="paint10_linear_260_126" x1="202.574" y1="28.6988" x2="202.574" y2="39.4879" gradientUnits="userSpaceOnUse">
<stop stop-color="#2A5580"/>
<stop offset="1" stop-color="#08192D"/>
</linearGradient>
<linearGradient id="paint11_linear_260_126" x1="101.52" y1="39.6942" x2="101.52" y2="44.7892" gradientUnits="userSpaceOnUse">
<stop stop-color="#A4A2A3"/>
<stop offset="1" stop-color="#575757"/>
</linearGradient>
<linearGradient id="paint12_linear_260_126" x1="104.803" y1="-58.1227" x2="104.803" y2="44.7902" gradientUnits="userSpaceOnUse">
<stop stop-color="#A4A2A3"/>
<stop offset="1" stop-color="#575757"/>
</linearGradient>
<linearGradient id="paint13_linear_260_126" x1="108.108" y1="39.6952" x2="108.108" y2="44.7902" gradientUnits="userSpaceOnUse">
<stop stop-color="#A4A2A3"/>
<stop offset="1" stop-color="#575757"/>
</linearGradient>
<linearGradient id="paint14_linear_260_126" x1="110.962" y1="39.695" x2="110.962" y2="44.79" gradientUnits="userSpaceOnUse">
<stop stop-color="#A4A2A3"/>
<stop offset="1" stop-color="#575757"/>
</linearGradient>
<linearGradient id="paint15_linear_260_126" x1="115.511" y1="39.6952" x2="115.511" y2="44.7902" gradientUnits="userSpaceOnUse">
<stop stop-color="#A4A2A3"/>
<stop offset="1" stop-color="#575757"/>
</linearGradient>
<linearGradient id="paint16_linear_260_126" x1="118.473" y1="39.6952" x2="118.473" y2="44.7902" gradientUnits="userSpaceOnUse">
<stop stop-color="#A4A2A3"/>
<stop offset="1" stop-color="#575757"/>
</linearGradient>
<linearGradient id="paint17_linear_260_126" x1="121.273" y1="39.6952" x2="121.273" y2="44.7902" gradientUnits="userSpaceOnUse">
<stop stop-color="#A4A2A3"/>
<stop offset="1" stop-color="#575757"/>
</linearGradient>
<linearGradient id="paint18_linear_260_126" x1="123.719" y1="39.6942" x2="123.719" y2="44.7892" gradientUnits="userSpaceOnUse">
<stop stop-color="#A4A2A3"/>
<stop offset="1" stop-color="#575757"/>
</linearGradient>
<linearGradient id="paint19_linear_260_126" x1="126.177" y1="39.6952" x2="126.177" y2="44.7902" gradientUnits="userSpaceOnUse">
<stop stop-color="#A4A2A3"/>
<stop offset="1" stop-color="#575757"/>
</linearGradient>
<linearGradient id="paint20_linear_260_126" x1="128.026" y1="39.6952" x2="128.026" y2="44.7902" gradientUnits="userSpaceOnUse">
<stop stop-color="#A4A2A3"/>
<stop offset="1" stop-color="#575757"/>
</linearGradient>
<linearGradient id="paint21_linear_260_126" x1="132.673" y1="39.6954" x2="132.673" y2="44.7904" gradientUnits="userSpaceOnUse">
<stop stop-color="#A4A2A3"/>
<stop offset="1" stop-color="#575757"/>
</linearGradient>
<linearGradient id="paint22_linear_260_126" x1="135.836" y1="39.6952" x2="135.836" y2="44.7902" gradientUnits="userSpaceOnUse">
<stop stop-color="#A4A2A3"/>
<stop offset="1" stop-color="#575757"/>
</linearGradient>
<linearGradient id="paint23_linear_260_126" x1="139.137" y1="39.695" x2="139.137" y2="44.79" gradientUnits="userSpaceOnUse">
<stop stop-color="#A4A2A3"/>
<stop offset="1" stop-color="#575757"/>
</linearGradient>
<linearGradient id="paint24_linear_260_126" x1="142.208" y1="39.6952" x2="142.208" y2="44.7902" gradientUnits="userSpaceOnUse">
<stop stop-color="#A4A2A3"/>
<stop offset="1" stop-color="#575757"/>
</linearGradient>
<linearGradient id="paint25_linear_260_126" x1="147.158" y1="39.6952" x2="147.158" y2="44.7902" gradientUnits="userSpaceOnUse">
<stop stop-color="#A4A2A3"/>
<stop offset="1" stop-color="#575757"/>
</linearGradient>
<linearGradient id="paint26_linear_260_126" x1="150.516" y1="39.6942" x2="150.516" y2="44.7892" gradientUnits="userSpaceOnUse">
<stop stop-color="#A4A2A3"/>
<stop offset="1" stop-color="#575757"/>
</linearGradient>
<linearGradient id="paint27_linear_260_126" x1="154.14" y1="39.695" x2="154.14" y2="44.79" gradientUnits="userSpaceOnUse">
<stop stop-color="#A4A2A3"/>
<stop offset="1" stop-color="#575757"/>
</linearGradient>
<linearGradient id="paint28_linear_260_126" x1="157.2" y1="39.6942" x2="157.2" y2="44.7892" gradientUnits="userSpaceOnUse">
<stop stop-color="#A4A2A3"/>
<stop offset="1" stop-color="#575757"/>
</linearGradient>
<linearGradient id="paint29_linear_260_126" x1="160.575" y1="39.6953" x2="160.575" y2="44.7902" gradientUnits="userSpaceOnUse">
<stop stop-color="#A4A2A3"/>
<stop offset="1" stop-color="#575757"/>
</linearGradient>
<linearGradient id="paint30_linear_260_126" x1="163.672" y1="39.6952" x2="163.672" y2="44.7902" gradientUnits="userSpaceOnUse">
<stop stop-color="#A4A2A3"/>
<stop offset="1" stop-color="#575757"/>
</linearGradient>
<linearGradient id="paint31_linear_260_126" x1="167.022" y1="39.6952" x2="167.022" y2="44.7902" gradientUnits="userSpaceOnUse">
<stop stop-color="#A4A2A3"/>
<stop offset="1" stop-color="#575757"/>
</linearGradient>
<linearGradient id="paint32_linear_260_126" x1="170.387" y1="39.6952" x2="170.387" y2="44.7902" gradientUnits="userSpaceOnUse">
<stop stop-color="#A4A2A3"/>
<stop offset="1" stop-color="#575757"/>
</linearGradient>
<linearGradient id="paint33_linear_260_126" x1="173.468" y1="39.695" x2="173.468" y2="44.79" gradientUnits="userSpaceOnUse">
<stop stop-color="#A4A2A3"/>
<stop offset="1" stop-color="#575757"/>
</linearGradient>
<linearGradient id="paint34_linear_260_126" x1="177.014" y1="39.6952" x2="177.014" y2="44.7902" gradientUnits="userSpaceOnUse">
<stop stop-color="#A4A2A3"/>
<stop offset="1" stop-color="#575757"/>
</linearGradient>
<linearGradient id="paint35_linear_260_126" x1="181.4" y1="39.6954" x2="181.4" y2="44.7904" gradientUnits="userSpaceOnUse">
<stop stop-color="#A4A2A3"/>
<stop offset="1" stop-color="#575757"/>
</linearGradient>
<linearGradient id="paint36_linear_260_126" x1="184.645" y1="39.695" x2="184.645" y2="44.79" gradientUnits="userSpaceOnUse">
<stop stop-color="#A4A2A3"/>
<stop offset="1" stop-color="#575757"/>
</linearGradient>
<linearGradient id="paint37_linear_260_126" x1="187.785" y1="39.695" x2="187.785" y2="44.79" gradientUnits="userSpaceOnUse">
<stop stop-color="#A4A2A3"/>
<stop offset="1" stop-color="#575757"/>
</linearGradient>
<linearGradient id="paint38_linear_260_126" x1="191.1" y1="39.6952" x2="191.1" y2="44.7902" gradientUnits="userSpaceOnUse">
<stop stop-color="#A4A2A3"/>
<stop offset="1" stop-color="#575757"/>
</linearGradient>
<linearGradient id="paint39_linear_260_126" x1="195.234" y1="39.6952" x2="195.234" y2="44.7902" gradientUnits="userSpaceOnUse">
<stop stop-color="#A4A2A3"/>
<stop offset="1" stop-color="#575757"/>
</linearGradient>
<linearGradient id="paint40_linear_260_126" x1="198.208" y1="39.6947" x2="198.208" y2="44.7897" gradientUnits="userSpaceOnUse">
<stop stop-color="#A4A2A3"/>
<stop offset="1" stop-color="#575757"/>
</linearGradient>
<linearGradient id="paint41_linear_260_126" x1="201.581" y1="39.6952" x2="201.581" y2="44.7902" gradientUnits="userSpaceOnUse">
<stop stop-color="#A4A2A3"/>
<stop offset="1" stop-color="#575757"/>
</linearGradient>
<linearGradient id="paint42_linear_260_126" x1="204.543" y1="39.6952" x2="204.543" y2="44.7902" gradientUnits="userSpaceOnUse">
<stop stop-color="#A4A2A3"/>
<stop offset="1" stop-color="#575757"/>
</linearGradient>
<linearGradient id="paint43_linear_260_126" x1="37.4107" y1="0.493113" x2="39.5743" y2="16.868" gradientUnits="userSpaceOnUse">
<stop stop-color="#2A5580"/>
<stop offset="1" stop-color="#08192D"/>
</linearGradient>
<linearGradient id="paint44_linear_260_126" x1="25.6211" y1="18.1916" x2="25.6211" y2="41.0469" gradientUnits="userSpaceOnUse">
<stop stop-color="#2A5580"/>
<stop offset="1" stop-color="#08192D"/>
</linearGradient>
<linearGradient id="paint45_linear_260_126" x1="48.1692" y1="18.1916" x2="48.1692" y2="40.491" gradientUnits="userSpaceOnUse">
<stop stop-color="#F53A31"/>
<stop offset="1" stop-color="#8F0304"/>
</linearGradient>
<linearGradient id="paint46_linear_260_126" x1="69.2294" y1="18.1907" x2="69.2294" y2="41.046" gradientUnits="userSpaceOnUse">
<stop stop-color="#2A5580"/>
<stop offset="1" stop-color="#08192D"/>
</linearGradient>
<linearGradient id="paint47_linear_260_126" x1="-9.21452" y1="26.3001" x2="30.3862" y2="57.4873" gradientUnits="userSpaceOnUse">
<stop stop-color="#F53A31"/>
<stop offset="1" stop-color="#8F0304"/>
</linearGradient>
<linearGradient id="paint48_linear_260_126" x1="89.7087" y1="28.743" x2="70.8975" y2="57.0285" gradientUnits="userSpaceOnUse">
<stop stop-color="#777777"/>
<stop offset="0.47" stop-color="#A4A2A3"/>
<stop offset="1" stop-color="#777777"/>
</linearGradient>
<linearGradient id="paint49_linear_260_126" x1="65.3086" y1="41.8893" x2="89.9788" y2="41.8893" gradientUnits="userSpaceOnUse">
<stop stop-color="#2A5580"/>
<stop offset="1" stop-color="#08192D"/>
</linearGradient>
<linearGradient id="paint50_linear_260_126" x1="86.7501" y1="26.7793" x2="67.9389" y2="55.0648" gradientUnits="userSpaceOnUse">
<stop stop-color="#777777"/>
<stop offset="0.47" stop-color="#A4A2A3"/>
<stop offset="1" stop-color="#777777"/>
</linearGradient>
<linearGradient id="paint51_linear_260_126" x1="1.58254" y1="47.2934" x2="66.3014" y2="47.2934" gradientUnits="userSpaceOnUse">
<stop stop-color="#2A5580"/>
<stop offset="1" stop-color="#08192D"/>
</linearGradient>
</defs>
</svg>
