<svg width="90" height="61" viewBox="0 0 90 61" fill="none" xmlns="http://www.w3.org/2000/svg">
<path d="M76.5286 15.5506L71.5084 15.8278C62.879 9.65217 52.4448 5.18935 41.4461 7.17494C13.2978 12.2563 12.6456 32.5425 12.6456 32.5425L5.57429 38.6875C4.85212 37.4518 4.75 32.3718 4.75 32.3718L7.59488 31.2952C8.54463 30.9363 9.26096 30.1382 9.51773 29.1564C9.86641 27.8229 9.30327 26.4195 8.1303 25.6973L6.25998 24.5448L9.72781 17.9884L12.0475 18.5384C13.1212 18.7937 14.249 18.4655 15.0178 17.6733L16.999 15.6352C17.9284 14.6796 18.1501 13.2411 17.5549 12.0492L16.5249 9.98918L22.9791 5.4578L25.1923 7.03488C26.1158 7.69285 27.3209 7.80081 28.3465 7.31791L30.9535 6.0895C32.0025 5.59493 32.694 4.56056 32.748 3.40219L32.8312 1.6121L40.5211 0L41.6109 1.90242C42.1857 2.90615 43.2682 3.5116 44.4252 3.47659L47.5283 3.38176C48.6137 3.34821 49.6043 2.75589 50.147 1.81635L51.196 0L58.6452 1.40639L58.8086 3.34529C58.899 4.42342 59.541 5.37901 60.5038 5.87213L63.2233 7.26247C64.2328 7.77893 65.4437 7.7089 66.3876 7.08011L68.6694 5.55846L74.8989 9.78056L74.4613 10.6092C73.7668 11.9252 74.0951 13.5489 75.2447 14.4928L76.53 15.5476L76.5286 15.5506Z" fill="url(#paint0_linear_260_194)"/>
<path d="M68.2043 15.5504H66.2961C60.9069 12.4152 53.9756 10.5303 46.414 10.5303C35.0214 10.5303 17.9754 19.7769 15.593 29.9032L14.3369 30.8296C14.331 30.6691 14.3281 30.5087 14.3281 30.3467C14.3281 21.4547 29.1565 8.61621 45.4278 8.61621C54.4234 8.61621 62.5262 11.2846 68.2043 15.5504Z" fill="#2B5277"/>
<path d="M41.268 26.5015H38.7528L39.9375 22.383L38.1868 17.748H28.9694L8.57812 41.2278L11.7192 42.5671H16.6634L20.6273 37.7264H35.8686L37.4646 42.5671H39.6792L42.6656 31.1365L41.268 26.5015ZM25.3133 32.1665L31.8011 24.2358L34.5818 32.1665H25.3133Z" fill="url(#paint1_linear_260_194)"/>
<path d="M41.2656 24.5962H45.8568L41.5837 42.5671H49.205L55.0757 17.748C55.0757 17.748 47.5069 21.0948 42.2023 20.6323L41.2671 24.5976L41.2656 24.5962Z" fill="url(#paint2_linear_260_194)"/>
<path d="M87.1478 18.0054L82.7711 23.9271H64.132C64.132 23.9271 62.1756 24.0307 61.9699 25.421C61.7642 26.8114 61.5584 27.481 64.132 27.5831C66.7055 27.6853 77.0565 27.5831 77.0565 27.5831C77.0565 27.5831 82.9272 27.6867 82.0518 32.167C81.1765 36.6459 78.3447 41.7959 70.9291 42.1037C63.5134 42.4115 63.1545 42.5676 63.1545 42.5676C63.1545 42.5676 58.6742 38.757 52.2389 42.5676H51.3125L52.9086 36.5438H70.7759C70.7759 36.5438 73.968 36.9552 74.3283 34.4327C74.6887 31.9103 72.1137 32.631 72.1137 32.631H58.3138C58.3138 32.631 53.6803 32.3217 54.401 29.2842C55.1217 26.2468 56.5631 20.6343 56.5631 20.6343C56.5631 20.6343 56.8199 18.0083 62.1756 18.0083H87.1493L87.1478 18.0054Z" fill="url(#paint3_linear_260_194)"/>
<path d="M48.7627 57.1911C48.1164 57.4012 29.0557 61.7779 13.8655 56.5579C9.17945 55.1165 4.27459 52.8523 1.62228 48.5149C0.0948009 46.0319 -0.322447 42.974 0.237776 40.1525C0.627306 38.1027 1.46764 36.0996 2.8609 34.5342C1.9768 37.0173 1.1992 39.6068 1.32029 42.2562C1.69231 50.0205 9.95268 53.2345 16.4653 54.746C30.5569 58.4224 45.9878 57.1298 48.7627 57.1911Z" fill="url(#paint4_linear_260_194)"/>
<path d="M66.3398 58.5924C66.3574 58.5662 66.3734 58.5414 66.3895 58.5136C67.7696 56.3151 68.2116 51.5254 68.2116 51.5254C93.8214 41.9579 85.011 25.4269 84.6492 24.7704C84.6419 24.7573 84.6375 24.75 84.6375 24.75C84.6375 24.75 104.967 41.9448 66.3398 58.5924Z" fill="url(#paint5_linear_260_194)"/>
<path d="M66.3357 58.5924C65.9987 58.7369 65.6558 58.8827 65.3086 59.0272C65.4224 58.9761 65.8017 58.8025 66.3853 58.5136C71.9175 55.7782 95.759 42.664 84.645 24.7704C84.6377 24.7573 84.6334 24.75 84.6334 24.75C84.6334 24.75 104.963 41.9448 66.3357 58.5924Z" fill="url(#paint6_linear_260_194)"/>
<path d="M84.6317 24.75C84.6317 24.75 91.016 38.8241 75.7747 45.6562L80.2711 41.6719C80.2711 41.6719 72.2733 45.9305 69.2344 45.1412C69.2344 45.1412 88.6817 44.3855 84.6303 24.75H84.6317Z" fill="url(#paint7_linear_260_194)"/>
<path d="M59.5466 54.7295L57.2882 51.6949L57.6749 47.8507C59.8603 47.4305 62.0487 47.0118 64.2341 46.5931C64.4646 46.5479 64.6937 46.5041 64.9242 46.4603C64.5843 45.9541 62.463 42.9123 58.6056 42.4323C55.005 41.9844 51.3446 43.9481 49.413 47.4072C-1.22294 51.0749 2.77302 34.8868 2.86347 34.5396C2.30179 35.8453 1.93414 37.0708 1.74302 38.2204C-1.28714 56.3882 39.3538 55.8426 48.1277 55.5158C49.1854 55.4764 49.7807 55.4399 49.7807 55.4399C50.214 56.2248 51.4292 58.1754 53.8467 59.2769C56.8593 60.6483 60.5475 60.1595 63.1268 58.0368C65.7295 55.8966 66.2022 52.916 66.3014 52.1443L59.5466 54.7295ZM40.1839 52.7716C38.7965 52.7833 36.8182 52.7701 35.4527 52.6957C34.093 52.6636 32.103 52.5367 30.7258 52.4112C29.3807 52.3325 27.3674 52.0596 26.0135 51.8992C23.7405 51.5476 21.237 51.1303 19.0297 50.5132C17.1156 50.0113 15.2278 49.3665 13.4304 48.5364C12.3668 48.0345 11.2887 47.467 10.3769 46.72C11.7672 47.4363 13.2714 47.8696 14.7638 48.3015C16.6371 48.8004 18.5366 49.1768 20.4463 49.5065C21.3333 49.651 22.426 49.794 23.3189 49.9282C23.6793 49.969 25.7976 50.2054 26.2075 50.252C27.5483 50.344 29.5222 50.5234 30.8498 50.5613C36.2551 50.8414 41.7581 50.6839 47.1605 50.5001L47.2699 52.5396C44.921 52.6534 42.5401 52.7906 40.1839 52.7716Z" fill="url(#paint8_linear_260_194)"/>
<defs>
<linearGradient id="paint0_linear_260_194" x1="37.4107" y1="0.493113" x2="39.5743" y2="16.868" gradientUnits="userSpaceOnUse">
<stop stop-color="#2A5580"/>
<stop offset="1" stop-color="#08192D"/>
</linearGradient>
<linearGradient id="paint1_linear_260_194" x1="25.6211" y1="18.1916" x2="25.6211" y2="41.0469" gradientUnits="userSpaceOnUse">
<stop stop-color="#2A5580"/>
<stop offset="1" stop-color="#08192D"/>
</linearGradient>
<linearGradient id="paint2_linear_260_194" x1="48.1692" y1="18.1916" x2="48.1692" y2="40.491" gradientUnits="userSpaceOnUse">
<stop stop-color="#F53A31"/>
<stop offset="1" stop-color="#8F0304"/>
</linearGradient>
<linearGradient id="paint3_linear_260_194" x1="69.2294" y1="18.1907" x2="69.2294" y2="41.046" gradientUnits="userSpaceOnUse">
<stop stop-color="#2A5580"/>
<stop offset="1" stop-color="#08192D"/>
</linearGradient>
<linearGradient id="paint4_linear_260_194" x1="-9.21452" y1="26.3001" x2="30.3862" y2="57.4873" gradientUnits="userSpaceOnUse">
<stop stop-color="#F53A31"/>
<stop offset="1" stop-color="#8F0304"/>
</linearGradient>
<linearGradient id="paint5_linear_260_194" x1="89.7087" y1="28.743" x2="70.8975" y2="57.0285" gradientUnits="userSpaceOnUse">
<stop stop-color="#777777"/>
<stop offset="0.47" stop-color="#A4A2A3"/>
<stop offset="1" stop-color="#777777"/>
</linearGradient>
<linearGradient id="paint6_linear_260_194" x1="65.3086" y1="41.8893" x2="89.9788" y2="41.8893" gradientUnits="userSpaceOnUse">
<stop stop-color="#2A5580"/>
<stop offset="1" stop-color="#08192D"/>
</linearGradient>
<linearGradient id="paint7_linear_260_194" x1="86.7501" y1="26.7793" x2="67.9389" y2="55.0648" gradientUnits="userSpaceOnUse">
<stop stop-color="#777777"/>
<stop offset="0.47" stop-color="#A4A2A3"/>
<stop offset="1" stop-color="#777777"/>
</linearGradient>
<linearGradient id="paint8_linear_260_194" x1="1.58254" y1="47.2934" x2="66.3014" y2="47.2934" gradientUnits="userSpaceOnUse">
<stop stop-color="#2A5580"/>
<stop offset="1" stop-color="#08192D"/>
</linearGradient>
</defs>
</svg>
